<svg xmlns="http://www.w3.org/2000/svg" xmlns:xlink="http://www.w3.org/1999/xlink" width="1920" height="781.598" viewBox="0 0 1920 781.598">
  <defs>
    <linearGradient id="linear-gradient" x1="0.224" y1="0.44" x2="1" y2="1" gradientUnits="objectBoundingBox">
      <stop offset="0" stop-color="#6560e2"/>
      <stop offset="1" stop-color="#7974f2"/>
    </linearGradient>
  </defs>
  <g id="hero" transform="translate(0 131.598)">
    <rect id="Rectangle_1" data-name="Rectangle 1" width="1920" height="779" transform="translate(0 -129)" fill="url(#linear-gradient)"/>
    <g id="Groupe_3" data-name="Groupe 3" transform="translate(123 7)">
      <line id="Ligne_1" data-name="Ligne 1" x2="163" y2="191" transform="translate(129.5 17.5)" fill="none" stroke="rgba(96,148,226,0.56)" stroke-linecap="round" stroke-width="10"/>
      <line id="Ligne_2" data-name="Ligne 2" x2="163" y2="191" transform="translate(169.5 166.5)" fill="none" stroke="rgba(96,148,226,0.92)" stroke-linecap="round" stroke-width="15"/>
      <line id="Ligne_4" data-name="Ligne 4" x2="163" y2="191" transform="translate(48.5 134.5)" fill="none" stroke="rgba(96,148,226,0.34)" stroke-linecap="round" stroke-width="30"/>
      <line id="Ligne_3" data-name="Ligne 3" x2="163" y2="191" transform="translate(88.5 -124.5)" fill="none" stroke="#6094e2" stroke-linecap="round" stroke-width="20"/>
    </g>
    <path id="Tracé_102" data-name="Tracé 102" d="M499.6,154.284c-44.618-1.151-87.112-11.851-127.69-23.557s-80.77-24.7-124.319-30.906c-28.01-3.992-60.047-4.557-82.611,6.6-21.723,10.727-28.741,29.244-32.512,46.479-2.84,12.94-4.509,26.556,3.268,38.668,5.4,8.411,14.988,15.477,21.62,23.536,23.074,28.031,6.763,62.59-18.235,89.96-11.72,12.837-25.335,25.08-34.387,38.751s-13.236,29.32-5.315,43.267c7.845,13.788,26.549,24.191,46.81,31.492,41.15,14.829,89.622,19.069,136.921,21.475,104.671,5.322,209.894,3.013,314.841.689,38.841-.855,77.847-1.717,116.053-6.2,21.22-2.475,43.122-6.411,58.53-15.9,19.551-12.051,24.4-32.457,11.292-47.569-21.978-25.349-82.728-31.65-98.108-58.854-8.452-14.974.227-31.65,12.519-45.542,26.363-29.789,70.546-55.924,72.869-89.98,1.6-23.384-19.641-46.81-52.484-57.875-34.422-11.6-82.162-10.141-107.546,9.059C584.95,147.666,538.994,155.277,499.6,154.284Z" transform="translate(788.774 -1.814)" fill="#6c63ff" opacity="0.1"/>
    <g id="plant" transform="translate(993.773 207.366)">
      <path id="Tracé_207" data-name="Tracé 207" d="M742.069,656.35s-16.64-56.5,3.123-98.06a89.215,89.215,0,0,0,7.217-55.984A150.078,150.078,0,0,0,744.484,476" transform="translate(-702.741 -436.904)" fill="none" stroke="#535461" stroke-miterlimit="10" stroke-width="2"/>
      <path id="Tracé_208" data-name="Tracé 208" d="M754.9,430.868c0,6.927-12.539,26.98-12.539,26.98s-12.539-20.08-12.539-26.98a12.539,12.539,0,1,1,25.071,0Z" transform="translate(-700.885 -418.037)" fill="#514abf"/>
      <path id="Tracé_209" data-name="Tracé 209" d="M785.6,484.705c-3.764,5.814-25.2,15.851-25.2,15.851s.391-23.668,4.155-29.483A12.539,12.539,0,0,1,785.6,484.7Z" transform="translate(-710.84 -433.522)" fill="#514abf"/>
      <path id="Tracé_210" data-name="Tracé 210" d="M782.052,579.637c-6.185,3.116-29.752.965-29.752.965s12.283-20.235,18.468-23.352a12.538,12.538,0,1,1,11.292,22.389Z" transform="translate(-708.203 -462.911)" fill="#514abf"/>
      <path id="Tracé_211" data-name="Tracé 211" d="M764.766,653.464c-5.565,4.115-29.166,5.976-29.166,5.976s8.688-22.016,14.252-26.137a12.539,12.539,0,1,1,14.914,20.161Z" transform="translate(-702.768 -487.304)" fill="#514abf"/>
      <path id="Tracé_212" data-name="Tracé 212" d="M719.628,509.127c4.964,4.823,28.08,9.841,28.08,9.841s-5.666-22.98-10.63-27.81a12.539,12.539,0,0,0-17.47,17.982Z" transform="translate(-696.394 -440.751)" fill="#514abf"/>
      <path id="Tracé_213" data-name="Tracé 213" d="M698.579,593.927c6.185,3.116,29.753.965,29.753.965s-12.283-20.235-18.468-23.352a12.538,12.538,0,1,0-11.292,22.389Z" transform="translate(-688.471 -467.563)" fill="#514abf"/>
      <path id="Tracé_214" data-name="Tracé 214" d="M692.007,680.624c5.565,4.114,29.166,5.976,29.166,5.976s-8.688-22.016-14.252-26.137a12.539,12.539,0,1,0-14.914,20.161Z" transform="translate(-686.924 -496.145)" fill="#514abf"/>
    </g>
    <g id="plant-2" data-name="plant" transform="translate(1448.237 320.755)">
      <path id="Tracé_207-2" data-name="Tracé 207" d="M742.069,656.35s-16.64-56.5,3.123-98.06a89.215,89.215,0,0,0,7.217-55.984A150.078,150.078,0,0,0,744.484,476" transform="translate(-702.741 -436.904)" fill="none" stroke="#535461" stroke-miterlimit="10" stroke-width="2"/>
      <path id="Tracé_208-2" data-name="Tracé 208" d="M754.9,430.868c0,6.927-12.539,26.98-12.539,26.98s-12.539-20.08-12.539-26.98a12.539,12.539,0,1,1,25.071,0Z" transform="translate(-700.885 -418.037)" fill="#514abf"/>
      <path id="Tracé_209-2" data-name="Tracé 209" d="M785.6,484.705c-3.764,5.814-25.2,15.851-25.2,15.851s.391-23.668,4.155-29.483A12.539,12.539,0,0,1,785.6,484.7Z" transform="translate(-710.84 -433.522)" fill="#514abf"/>
      <path id="Tracé_210-2" data-name="Tracé 210" d="M782.052,579.637c-6.185,3.116-29.752.965-29.752.965s12.283-20.235,18.468-23.352a12.538,12.538,0,1,1,11.292,22.389Z" transform="translate(-708.203 -462.911)" fill="#514abf"/>
      <path id="Tracé_211-2" data-name="Tracé 211" d="M764.766,653.464c-5.565,4.115-29.166,5.976-29.166,5.976s8.688-22.016,14.252-26.137a12.539,12.539,0,1,1,14.914,20.161Z" transform="translate(-702.768 -487.304)" fill="#514abf"/>
      <path id="Tracé_212-2" data-name="Tracé 212" d="M719.628,509.127c4.964,4.823,28.08,9.841,28.08,9.841s-5.666-22.98-10.63-27.81a12.539,12.539,0,0,0-17.47,17.982Z" transform="translate(-696.394 -440.751)" fill="#514abf"/>
      <path id="Tracé_213-2" data-name="Tracé 213" d="M698.579,593.927c6.185,3.116,29.753.965,29.753.965s-12.283-20.235-18.468-23.352a12.538,12.538,0,1,0-11.292,22.389Z" transform="translate(-688.471 -467.563)" fill="#514abf"/>
      <path id="Tracé_214-2" data-name="Tracé 214" d="M692.007,680.624c5.565,4.114,29.166,5.976,29.166,5.976s-8.688-22.016-14.252-26.137a12.539,12.539,0,1,0-14.914,20.161Z" transform="translate(-686.924 -496.145)" fill="#514abf"/>
    </g>
    <g id="Groupe_5" data-name="Groupe 5" transform="translate(953.848 174.818)">
      <path id="Tracé_1" data-name="Tracé 1" d="M903.065,743.957c-2.926,11.144-13.181,18.108-13.181,18.108s-5.51-11.1-2.583-22.248,13.181-18.108,13.181-18.108S905.991,732.813,903.065,743.957Z" transform="translate(-541.008 -449.658)" fill="#3f3d56"/>
      <path id="Tracé_2" data-name="Tracé 2" d="M902.882,756.889c-8.2,8.1-9.113,20.459-9.113,20.459s12.372-.767,20.568-8.865,9.113-20.459,9.113-20.459S911.078,748.791,902.882,756.889Z" transform="translate(-545.264 -464.948)" fill="#6560e2"/>
      <path id="Tracé_3" data-name="Tracé 3" d="M187.59,649.532h15.436l38.038-14.884s27.012-11.026,24.807,9.923-6.064,49.063-6.064,49.063-12.128-5.513-18.743-3.859-2.205-33.628-2.205-33.628-54.025,25.91-58.986,22.6-6.064-26.461-6.064-26.461Z" transform="translate(-126.949 -397.388)" fill="#2f2e41"/>
      <path id="Tracé_4" data-name="Tracé 4" d="M187.59,649.532h15.436l38.038-14.884s27.012-11.026,24.807,9.923-6.064,49.063-6.064,49.063-12.128-5.513-18.743-3.859-2.205-33.628-2.205-33.628-54.025,25.91-58.986,22.6-6.064-26.461-6.064-26.461Z" transform="translate(-126.949 -397.388)" opacity="0.1"/>
      <path id="Tracé_5" data-name="Tracé 5" d="M245.547,558.82l18.68,26.839,43.551,36.384s40.243,9.372,34.73,15.987-39.14-6.615-39.14-6.615-50.166-36.384-51.82-39.141S231.7,563.609,231.7,563.609Z" transform="translate(-160.587 -355.016)" fill="#ffb8b8"/>
      <path id="Tracé_6" data-name="Tracé 6" d="M245.547,558.82l18.68,26.839,43.551,36.384s40.243,9.372,34.73,15.987-39.14-6.615-39.14-6.615-50.166-36.384-51.82-39.141S231.7,563.609,231.7,563.609Z" transform="translate(-160.587 -355.016)" opacity="0.1"/>
      <path id="Tracé_7" data-name="Tracé 7" d="M213.053,507.092l12.128,23.7s-2.756,11.577-7.167,12.679-23.154-14.333-23.154-14.333Z" transform="translate(-139.182 -324.96)" fill="#d0cde1"/>
      <path id="Tracé_8" data-name="Tracé 8" d="M213.053,507.092l12.128,23.7s-2.756,11.577-7.167,12.679-23.154-14.333-23.154-14.333Z" transform="translate(-139.182 -324.96)" opacity="0.1"/>
      <path id="Tracé_9" data-name="Tracé 9" d="M568.209,643.922l3.583,14.778a.923.923,0,0,1-.018.5l-16.251,50.785a.923.923,0,0,1-1.8-.177l-2.248-19.784a.924.924,0,0,1,.039-.39l14.917-45.779a.923.923,0,0,1,1.774.068Z" transform="translate(-346.382 -404.052)" fill="#2f2e41"/>
      <path id="Tracé_10" data-name="Tracé 10" d="M506.429,575.493l3.307,12.679L495.4,634.479,492.1,620.146Z" transform="translate(-285.919 -334.375)" fill="#f2f2f2"/>
      <path id="Tracé_11" data-name="Tracé 11" d="M415.787,777.183c.551,1.654,57.332-.551,57.884-1.1a11.963,11.963,0,0,0,1.213-2.205c.518-1.1.992-2.205.992-2.205l-2.205-17.85-56.23-2s-1.406,15.127-1.692,22.051A16.548,16.548,0,0,0,415.787,777.183Z" transform="translate(-267.494 -467.156)" fill="#2f2e41"/>
      <path id="Tracé_12" data-name="Tracé 12" d="M442.118,689.965l1.1,15.435H418.413V689.965Z" transform="translate(-243.108 -400.886)" opacity="0.1"/>
      <path id="Tracé_13" data-name="Tracé 13" d="M378.8,701.765l.148-.029-.7,6.645H364.467v-6.616Z" transform="translate(-211.764 -407.725)" opacity="0.1"/>
      <path id="Tracé_14" data-name="Tracé 14" d="M415.787,807.763c.551,1.654,57.332-.551,57.884-1.1a11.967,11.967,0,0,0,1.213-2.205H415.748A16.543,16.543,0,0,0,415.787,807.763Z" transform="translate(-267.494 -497.735)" opacity="0.1"/>
      <path id="Tracé_49" data-name="Tracé 49" d="M24.807,0A24.807,24.807,0,1,1,0,24.807,24.807,24.807,0,0,1,24.807,0Z" transform="translate(57.333 124.799)" fill="#ffb8b8"/>
      <path id="Tracé_15" data-name="Tracé 15" d="M201.7,452.46s-8.269,14.333-9.923,22.051-24.807-15.436-24.807-15.436l-3.032-7.993s21.775-10.2,20.122-18.468S201.7,452.46,201.7,452.46Z" transform="translate(-121.216 -280.803)" fill="#ffb8b8"/>
      <path id="Tracé_16" data-name="Tracé 16" d="M227.9,584.722l22.6,29.769,54.025,40.243s39.141,8.269,30.32,14.333-34.179-5.513-34.179-5.513-54.576-29.218-66.153-41.346-33.076-32.525-33.076-32.525Z" transform="translate(-143.004 -370.065)" fill="#ffb8b8"/>
      <path id="Tracé_17" data-name="Tracé 17" d="M124.189,690.482l6.615,10.474,39.481-12.421a31.042,31.042,0,0,1,25.845,3.118c6.891,4.341,11.3,11.232,1.378,21.431-19.846,20.4-33.076,9.372-33.076,9.372s-66.7,31.423-77.73,15.987-11.577-23.154-11.577-23.154S117.574,688.828,124.189,690.482Z" transform="translate(-69.613 -429.518)" fill="#2f2e41"/>
      <path id="Tracé_18" data-name="Tracé 18" d="M309.322,775.207s17.641,11.577-3.308,17.09-36.384-2.205-36.384-2.205-18.192,0-18.192-9.372,6.064-10.474,6.064-10.474L276.245,773S298.848,766.938,309.322,775.207Z" transform="translate(-172.054 -477.858)" fill="#d0cde1"/>
      <path id="Tracé_19" data-name="Tracé 19" d="M232.857,372.889a18.5,18.5,0,0,0,5.2,1.862c1.836.218,3.926-.422,4.795-2.054a6.449,6.449,0,0,0,.545-2.916c.066-3.027-.153-6.3-2.071-8.642-1.221-1.491-3-2.431-4.267-3.886a18.362,18.362,0,0,1-2.157-3.524c-2.458-4.616-6.1-9.052-11.154-10.383a24.186,24.186,0,0,0-6.511-.5l-12.736.18a22.174,22.174,0,0,0-6.127.659c-4.1,1.239-7.084,4.687-9.818,7.983a49.926,49.926,0,0,0-5.63,7.771,27.266,27.266,0,0,0-3.232,13.36,12.5,12.5,0,0,0,.458,3.535,19.618,19.618,0,0,0,1.389,3.052c2.388,4.691,3.807,10.551,1.117,15.076,4.672-1.909,9.3-4.411,12.378-8.408,1.379-1.788,2.46-3.881,4.3-5.193s4.832-1.426,6.011.5a5.387,5.387,0,0,1,.608,2.523,11.564,11.564,0,0,0,.7,4.258,3.191,3.191,0,0,0,3.466,1.978c2.4-.676,2.17-4.36,4.019-6.033,1.4-1.271,3.57-1.028,5.374-1.6a7.975,7.975,0,0,0,4.577-4.508c.683-1.532.673-5.54,1.965-6.37C227.67,370.565,231.355,372.219,232.857,372.889Z" transform="translate(-130.367 -229.522)" fill="#2f2e41"/>
      <path id="Tracé_20" data-name="Tracé 20" d="M102.723,472.255a6.543,6.543,0,0,1,3.405.009c3.539.95,11.472,3.465,13.173,7.292,2.205,4.961,9.923,12.679,9.923,12.679s10.474,10.474,8.269,17.641-10.474,15.436-10.474,15.436,2.205,34.179-8.82,43-15.436,2.756-15.436,11.026-34.179,34.179-40.795,18.192c0,0,3.308-29.769,2.205-40.243C63.087,546.963,64.677,482.555,102.723,472.255Z" transform="translate(-61.968 -304.591)" fill="#d0cde1"/>
      <path id="Tracé_21" data-name="Tracé 21" d="M165.751,503.769s33.628,24.807,27.564,35.281c0,0-20.4,9.923-24.807,9.372s-21.5-19.846-25.91-21.5S135.982,495.5,165.751,503.769Z" transform="translate(-107.316 -322.188)" fill="#d0cde1"/>
      <circle id="Ellipse_2" data-name="Ellipse 2" cx="27.233" cy="27.233" r="27.233" transform="translate(181.444 72.256)" fill="#f2f2f2"/>
      <path id="Tracé_22" data-name="Tracé 22" d="M885.262,181.141H732.649V149.207H885.262Zm-151.94-.672H884.588v-30.59H733.321Z" transform="translate(-451.649 -117.021)" fill="#3f3d56"/>
      <rect id="Rectangle_2" data-name="Rectangle 2" width="151.939" height="31.262" transform="translate(270.579 38.573)" fill="#85baff"/>
      <circle id="Ellipse_3" data-name="Ellipse 3" cx="2.353" cy="2.353" r="2.353" transform="translate(172.178 4.034)" fill="#6c63ff"/>
      <circle id="Ellipse_4" data-name="Ellipse 4" cx="2.353" cy="2.353" r="2.353" transform="translate(180.245 4.034)" fill="#6c63ff"/>
      <circle id="Ellipse_5" data-name="Ellipse 5" cx="2.353" cy="2.353" r="2.353" transform="translate(188.313 4.034)" fill="#6c63ff"/>
      <path id="Tracé_23" data-name="Tracé 23" d="M745.524,256.6H462.487V72.386H745.525Zm-282.365-.672H744.852V73.058H463.159Z" transform="translate(-294.679 -72.386)" fill="#3f3d56"/>
      <rect id="Rectangle_3" data-name="Rectangle 3" width="282.365" height="0.672" transform="translate(168.144 10.197)" fill="#3f3d56"/>
      <path id="Tracé_24" data-name="Tracé 24" d="M476.409,84.183a2.689,2.689,0,1,1,2.689-2.689A2.689,2.689,0,0,1,476.409,84.183Zm0-4.706a2.017,2.017,0,1,0,2.017,2.017,2.017,2.017,0,0,0-2.017-2.017Z" transform="translate(-301.205 -76.115)" fill="#3f3d56"/>
      <path id="Tracé_25" data-name="Tracé 25" d="M495.664,84.183a2.689,2.689,0,1,1,2.689-2.689A2.689,2.689,0,0,1,495.664,84.183Zm0-4.706a2.017,2.017,0,1,0,2.017,2.017,2.017,2.017,0,0,0-2.017-2.017Z" transform="translate(-312.393 -76.115)" fill="#3f3d56"/>
      <path id="Tracé_26" data-name="Tracé 26" d="M514.919,84.183a2.689,2.689,0,1,1,2.689-2.689A2.689,2.689,0,0,1,514.919,84.183Zm0-4.706a2.017,2.017,0,1,0,2.017,2.017,2.017,2.017,0,0,0-2.017-2.017Z" transform="translate(-323.581 -76.115)" fill="#3f3d56"/>
      <rect id="Rectangle_4" data-name="Rectangle 4" width="0.672" height="173.601" transform="translate(256.459 10.533)" fill="#3f3d56"/>
      <rect id="Rectangle_5" data-name="Rectangle 5" width="49.414" height="6.723" transform="translate(288.563 95.887)" fill="#f2f2f2"/>
      <rect id="Rectangle_6" data-name="Rectangle 6" width="49.414" height="6.723" transform="translate(366.214 95.887)" fill="#f2f2f2"/>
      <path id="Tracé_27" data-name="Tracé 27" d="M806.4,299.815H756.317V292.42H806.4Zm-49.414-.672h48.742v-6.051H756.989Z" transform="translate(-465.401 -200.231)" fill="#3f3d56"/>
      <rect id="Rectangle_7" data-name="Rectangle 7" width="49.414" height="6.723" transform="translate(288.563 147.99)" fill="#f2f2f2"/>
      <path id="Tracé_28" data-name="Tracé 28" d="M806.4,424.173H756.317v-7.395H806.4Zm-49.414-.672h48.742V417.45H756.989Z" transform="translate(-465.401 -272.486)" fill="#3f3d56"/>
      <rect id="Rectangle_8" data-name="Rectangle 8" width="127.064" height="6.723" transform="translate(288.731 121.266)" fill="#f2f2f2"/>
      <path id="Tracé_29" data-name="Tracé 29" d="M884.456,361.994H756.718V354.6H884.455Zm-127.066-.672H883.783v-6.051H757.391Z" transform="translate(-465.634 -236.358)" fill="#3f3d56"/>
      <path id="Tracé_30" data-name="Tracé 30" d="M991.735,299.815H941.651V292.42h50.084Zm-49.414-.672h48.742v-6.051h-48.74Z" transform="translate(-573.084 -200.231)" fill="#3f3d56"/>
      <path id="Tracé_31" data-name="Tracé 31" d="M532.685,281.149A27.652,27.652,0,1,1,560.337,253.5a27.652,27.652,0,0,1-27.653,27.652Zm0-54.467A26.815,26.815,0,1,0,559.5,253.5,26.814,26.814,0,0,0,532.685,226.682Z" transform="translate(-319.399 -161.549)" fill="#3f3d56"/>
      <rect id="Rectangle_9" data-name="Rectangle 9" width="118.57" height="0.838" transform="translate(313.421 311.911)" fill="#3f3d56"/>
    </g>
  </g>
</svg>
